<svg xmlns="http://www.w3.org/2000/svg" viewBox="0 0 1200 800" width="1200" height="800" font-family="ui-monospace, 'JetBrains Mono', 'SF Mono', Menlo, monospace">
  <defs>
    <linearGradient id="bg" x1="0" y1="0" x2="1" y2="1">
      <stop offset="0" stop-color="#0a0a0f"/>
      <stop offset="1" stop-color="#13131c"/>
    </linearGradient>
    <radialGradient id="glow" cx="0.85" cy="0.05" r="0.7">
      <stop offset="0" stop-color="#fb923c" stop-opacity="0.18"/>
      <stop offset="1" stop-color="#fb923c" stop-opacity="0"/>
    </radialGradient>
    <radialGradient id="glowCool" cx="0.05" cy="0.95" r="0.7">
      <stop offset="0" stop-color="#a78bfa" stop-opacity="0.16"/>
      <stop offset="1" stop-color="#a78bfa" stop-opacity="0"/>
    </radialGradient>
    
  </defs>
  <rect width="1200" height="800" fill="url(#bg)"/>
  <rect width="1200" height="800" fill="url(#glow)"/>
  <rect width="1200" height="800" fill="url(#glowCool)"/>
  <rect x="80" y="40" width="1040" height="720" rx="14" fill="#12121a" stroke="#27272a"/>
  <rect x="80" y="40" width="1040" height="44" rx="14" fill="#0d0d14"/>
  <rect x="80" y="78" width="1040" height="6" fill="#27272a" opacity="0.6"/>
  <circle cx="110" cy="64" r="6.5" fill="#3f3f46"/><circle cx="132" cy="64" r="6.5" fill="#3f3f46"/><circle cx="154" cy="64" r="6.5" fill="#3f3f46"/>
  <text x="600" y="69" fill="#a1a1aa" font-size="14" text-anchor="middle">~/oom-kill — quell watch</text>
  <text x="1090" y="69" fill="#71717a" font-size="12" text-anchor="end">tty</text><g><rect x="120" y="100" width="134" height="22" rx="11" fill="#fb923c" fill-opacity="0.16" stroke="#fb923c" stroke-opacity="0.45"/><text x="187" y="115" fill="#fb923c" font-size="12" text-anchor="middle">MONITOR ▸ DETECT</text></g><g><rect x="296" y="100" width="78" height="22" rx="11" fill="#fb923c" fill-opacity="0.16" stroke="#fb923c" stroke-opacity="0.45"/><text x="335" y="115" fill="#fb923c" font-size="12" text-anchor="middle">OOM KILL</text></g>
  <text x="120" y="160" fill="#fb923c" font-size="16" opacity="1">$ quell watch</text>
  <text x="120" y="188" fill="#fafafa" font-size="16">02:41:02 INFO  monitor: dmesg + cgroup memory.events</text>
  <text x="120" y="216" fill="#fca5a5" font-size="16" opacity="1">02:41:04 ERROR  OOM-killed: worker pid=4128 rss=2.1G</text>
  <text x="120" y="244" fill="#fafafa" font-size="16">02:41:04 INFO  detector: skill=oom_kill matched</text>
  <text x="120" y="272" fill="#a1a1aa" font-size="16" opacity="1">02:41:05 INFO  tool: cat /proc/4128/status (12ms)</text>
  <text x="120" y="300" fill="#a1a1aa" font-size="16" opacity="1">02:41:06 INFO  tool: docker stats worker (snapshots: 60)</text>
  <text x="120" y="328" fill="#a1a1aa" font-size="16" opacity="1">02:41:09 INFO  tool: git_log src/worker/queue.py</text>
  <text x="120" y="356" fill="#fafafa" font-size="16">02:41:13 INFO  agent: rss climbs ~14MB / 30s — leak</text></svg>