<svg xmlns="http://www.w3.org/2000/svg" viewBox="0 0 1200 800" width="1200" height="800" font-family="ui-monospace, 'JetBrains Mono', 'SF Mono', Menlo, monospace">
  <defs>
    <linearGradient id="bg" x1="0" y1="0" x2="1" y2="1">
      <stop offset="0" stop-color="#0a0a0f"/>
      <stop offset="1" stop-color="#13131c"/>
    </linearGradient>
    <radialGradient id="glow" cx="0.85" cy="0.05" r="0.7">
      <stop offset="0" stop-color="#fb923c" stop-opacity="0.18"/>
      <stop offset="1" stop-color="#fb923c" stop-opacity="0"/>
    </radialGradient>
    <radialGradient id="glowCool" cx="0.05" cy="0.95" r="0.7">
      <stop offset="0" stop-color="#a78bfa" stop-opacity="0.16"/>
      <stop offset="1" stop-color="#a78bfa" stop-opacity="0"/>
    </radialGradient>
    
  </defs>
  <rect width="1200" height="800" fill="url(#bg)"/>
  <rect width="1200" height="800" fill="url(#glow)"/>
  <rect width="1200" height="800" fill="url(#glowCool)"/>
  <rect x="80" y="40" width="1040" height="720" rx="14" fill="#12121a" stroke="#27272a"/>
  <rect x="80" y="40" width="1040" height="44" rx="14" fill="#0d0d14"/>
  <rect x="80" y="78" width="1040" height="6" fill="#27272a" opacity="0.6"/>
  <circle cx="110" cy="64" r="6.5" fill="#3f3f46"/><circle cx="132" cy="64" r="6.5" fill="#3f3f46"/><circle cx="154" cy="64" r="6.5" fill="#3f3f46"/>
  <text x="600" y="69" fill="#a1a1aa" font-size="14" text-anchor="middle">agent ▸ incident_commander</text>
  <text x="1090" y="69" fill="#71717a" font-size="12" text-anchor="end">agent</text><g><rect x="120" y="100" width="99" height="22" rx="11" fill="#a78bfa" fill-opacity="0.16" stroke="#a78bfa" stroke-opacity="0.45"/><text x="169.5" y="115" fill="#a78bfa" font-size="12" text-anchor="middle">INVESTIGATE</text></g><g><rect x="240" y="100" width="141" height="22" rx="11" fill="#fb923c" fill-opacity="0.16" stroke="#fb923c" stroke-opacity="0.45"/><text x="310.5" y="115" fill="#fb923c" font-size="12" text-anchor="middle">OPENAI RATE-LIMIT</text></g>
  <text x="120" y="160" fill="#a78bfa" font-size="16" opacity="1">agent ▸ correlate_429_with_deploys</text>
  <text x="120" y="188" fill="#fafafa" font-size="16"></text>
  <text x="120" y="216" fill="#fafafa" font-size="16">Bursts: clusters of 30+ 429s within 10s of each other</text>
  <text x="120" y="244" fill="#fafafa" font-size="16">Deploy: 16:28 UTC — PR #287 added a fan-out batch job</text>
  <text x="120" y="272" fill="#fafafa" font-size="16"></text>
  <text x="120" y="300" fill="#fafafa" font-size="16">Effective qps: 18 → 92 after deploy.</text>
  <text x="120" y="328" fill="#fafafa" font-size="16">OpenAI tier RPM cap: 60 for gpt-4o-mini.</text>
  <text x="120" y="356" fill="#fafafa" font-size="16"></text>
  <text x="120" y="384" fill="#fafafa" font-size="16">Skill recommends:</text>
  <text x="120" y="412" fill="#86efac" font-size="16" opacity="1">  → add p-queue (concurrency=4) around llm.complete</text>
  <text x="120" y="440" fill="#86efac" font-size="16" opacity="1">  → wire LiteLLM fallback to anthropic/claude-haiku-4-5</text>
  <text x="120" y="468" fill="#fafafa" font-size="16"></text>
  <text x="120" y="496" fill="#fb923c" font-size="16" opacity="1">next ▸ propose_patch(src/llm/client.ts)</text></svg>