<svg xmlns="http://www.w3.org/2000/svg" viewBox="0 0 1200 800" width="1200" height="800" font-family="ui-monospace, 'JetBrains Mono', 'SF Mono', Menlo, monospace">
  <defs>
    <linearGradient id="bg" x1="0" y1="0" x2="1" y2="1">
      <stop offset="0" stop-color="#0a0a0f"/>
      <stop offset="1" stop-color="#13131c"/>
    </linearGradient>
    <radialGradient id="glow" cx="0.85" cy="0.05" r="0.7">
      <stop offset="0" stop-color="#fb923c" stop-opacity="0.18"/>
      <stop offset="1" stop-color="#fb923c" stop-opacity="0"/>
    </radialGradient>
    <radialGradient id="glowCool" cx="0.05" cy="0.95" r="0.7">
      <stop offset="0" stop-color="#a78bfa" stop-opacity="0.16"/>
      <stop offset="1" stop-color="#a78bfa" stop-opacity="0"/>
    </radialGradient>
    
  </defs>
  <rect width="1200" height="800" fill="url(#bg)"/>
  <rect width="1200" height="800" fill="url(#glow)"/>
  <rect width="1200" height="800" fill="url(#glowCool)"/>
  <rect x="80" y="40" width="1040" height="720" rx="14" fill="#12121a" stroke="#27272a"/>
  <rect x="80" y="40" width="1040" height="44" rx="14" fill="#0d0d14"/>
  <rect x="80" y="78" width="1040" height="6" fill="#27272a" opacity="0.6"/>
  <circle cx="110" cy="64" r="6.5" fill="#3f3f46"/><circle cx="132" cy="64" r="6.5" fill="#3f3f46"/><circle cx="154" cy="64" r="6.5" fill="#3f3f46"/>
  <text x="600" y="69" fill="#a1a1aa" font-size="14" text-anchor="middle">PR ▸ draft (no auto-merge)</text>
  <text x="1090" y="69" fill="#71717a" font-size="12" text-anchor="end">diff</text><g><rect x="120" y="100" width="78" height="22" rx="11" fill="#86efac" fill-opacity="0.16" stroke="#86efac" stroke-opacity="0.45"/><text x="159" y="115" fill="#86efac" font-size="12" text-anchor="middle">DRAFT PR</text></g><g><rect x="220" y="100" width="141" height="22" rx="11" fill="#fb923c" fill-opacity="0.16" stroke="#fb923c" stroke-opacity="0.45"/><text x="290.5" y="115" fill="#fb923c" font-size="12" text-anchor="middle">POSTGRES DEADLOCK</text></g>
  <g>
      <rect x="120" y="147" width="960" height="30" fill="transparent"/>
      <text x="134" y="165" fill="#a78bfa" font-size="14">@</text>
      <text x="156" y="165" fill="#a78bfa" font-size="14">src/orders_repo.py @@ -42,7 +42,12 @@</text>
    </g>
  <g>
      <rect x="120" y="177" width="960" height="30" fill="transparent"/>
      <text x="134" y="195" fill="#a1a1aa" font-size="14"> </text>
      <text x="156" y="195" fill="#fafafa" font-size="14">def bulk_update_orders(ids, payload):</text>
    </g>
  <g>
      <rect x="120" y="207" width="960" height="30" fill="rgba(252,165,165,0.10)"/>
      <text x="134" y="225" fill="#fca5a5" font-size="14">-</text>
      <text x="156" y="225" fill="#fafafa" font-size="14">    for oid in ids:</text>
    </g>
  <g>
      <rect x="120" y="237" width="960" height="30" fill="rgba(252,165,165,0.10)"/>
      <text x="134" y="255" fill="#fca5a5" font-size="14">-</text>
      <text x="156" y="255" fill="#fafafa" font-size="14">        cur.execute(UPDATE_SQL, [payload, oid])</text>
    </g>
  <g>
      <rect x="120" y="267" width="960" height="30" fill="rgba(134,239,172,0.10)"/>
      <text x="134" y="285" fill="#86efac" font-size="14">+</text>
      <text x="156" y="285" fill="#fafafa" font-size="14">    # sort to enforce a global lock order across workers</text>
    </g>
  <g>
      <rect x="120" y="297" width="960" height="30" fill="rgba(134,239,172,0.10)"/>
      <text x="134" y="315" fill="#86efac" font-size="14">+</text>
      <text x="156" y="315" fill="#fafafa" font-size="14">    for oid in sorted(ids):</text>
    </g>
  <g>
      <rect x="120" y="327" width="960" height="30" fill="rgba(134,239,172,0.10)"/>
      <text x="134" y="345" fill="#86efac" font-size="14">+</text>
      <text x="156" y="345" fill="#fafafa" font-size="14">        for attempt in range(3):</text>
    </g>
  <g>
      <rect x="120" y="357" width="960" height="30" fill="rgba(134,239,172,0.10)"/>
      <text x="134" y="375" fill="#86efac" font-size="14">+</text>
      <text x="156" y="375" fill="#fafafa" font-size="14">            try:</text>
    </g>
  <g>
      <rect x="120" y="387" width="960" height="30" fill="rgba(134,239,172,0.10)"/>
      <text x="134" y="405" fill="#86efac" font-size="14">+</text>
      <text x="156" y="405" fill="#fafafa" font-size="14">                cur.execute(UPDATE_SQL, [payload, oid])</text>
    </g>
  <g>
      <rect x="120" y="417" width="960" height="30" fill="rgba(134,239,172,0.10)"/>
      <text x="134" y="435" fill="#86efac" font-size="14">+</text>
      <text x="156" y="435" fill="#fafafa" font-size="14">                break</text>
    </g>
  <g>
      <rect x="120" y="447" width="960" height="30" fill="rgba(134,239,172,0.10)"/>
      <text x="134" y="465" fill="#86efac" font-size="14">+</text>
      <text x="156" y="465" fill="#fafafa" font-size="14">            except DeadlockDetected:</text>
    </g>
  <g>
      <rect x="120" y="477" width="960" height="30" fill="rgba(134,239,172,0.10)"/>
      <text x="134" y="495" fill="#86efac" font-size="14">+</text>
      <text x="156" y="495" fill="#fafafa" font-size="14">                time.sleep(0.05 * (2 ** attempt))</text>
    </g></svg>