<svg xmlns="http://www.w3.org/2000/svg" viewBox="0 0 1200 800" width="1200" height="800" font-family="ui-monospace, 'JetBrains Mono', 'SF Mono', Menlo, monospace">
  <defs>
    <linearGradient id="bg" x1="0" y1="0" x2="1" y2="1">
      <stop offset="0" stop-color="#0a0a0f"/>
      <stop offset="1" stop-color="#13131c"/>
    </linearGradient>
    <radialGradient id="glow" cx="0.85" cy="0.05" r="0.7">
      <stop offset="0" stop-color="#fb923c" stop-opacity="0.18"/>
      <stop offset="1" stop-color="#fb923c" stop-opacity="0"/>
    </radialGradient>
    <radialGradient id="glowCool" cx="0.05" cy="0.95" r="0.7">
      <stop offset="0" stop-color="#a78bfa" stop-opacity="0.16"/>
      <stop offset="1" stop-color="#a78bfa" stop-opacity="0"/>
    </radialGradient>
    
  </defs>
  <rect width="1200" height="800" fill="url(#bg)"/>
  <rect width="1200" height="800" fill="url(#glow)"/>
  <rect width="1200" height="800" fill="url(#glowCool)"/>
  <rect x="80" y="40" width="1040" height="720" rx="14" fill="#12121a" stroke="#27272a"/>
  <rect x="80" y="40" width="1040" height="44" rx="14" fill="#0d0d14"/>
  <rect x="80" y="78" width="1040" height="6" fill="#27272a" opacity="0.6"/>
  <circle cx="110" cy="64" r="6.5" fill="#3f3f46"/><circle cx="132" cy="64" r="6.5" fill="#3f3f46"/><circle cx="154" cy="64" r="6.5" fill="#3f3f46"/>
  <text x="600" y="69" fill="#a1a1aa" font-size="14" text-anchor="middle">agent ▸ incident_commander</text>
  <text x="1090" y="69" fill="#71717a" font-size="12" text-anchor="end">agent</text><g><rect x="120" y="100" width="99" height="22" rx="11" fill="#a78bfa" fill-opacity="0.16" stroke="#a78bfa" stroke-opacity="0.45"/><text x="169.5" y="115" fill="#a78bfa" font-size="12" text-anchor="middle">INVESTIGATE</text></g><g><rect x="240" y="100" width="92" height="22" rx="11" fill="#fb923c" fill-opacity="0.16" stroke="#fb923c" stroke-opacity="0.45"/><text x="286" y="115" fill="#fb923c" font-size="12" text-anchor="middle">SSL EXPIRY</text></g>
  <text x="120" y="160" fill="#a78bfa" font-size="16" opacity="1">agent ▸ trace_renewal_pipeline</text>
  <text x="120" y="188" fill="#fafafa" font-size="16"></text>
  <text x="120" y="216" fill="#fafafa" font-size="16">Cert: api.example.com</text>
  <text x="120" y="244" fill="#fb923c" font-size="16" opacity="1">  notAfter: 2026-05-02 (4d 02h remaining)</text>
  <text x="120" y="272" fill="#fafafa" font-size="16"></text>
  <text x="120" y="300" fill="#fafafa" font-size="16">Renewal: ops/cron/renew-certs.sh</text>
  <text x="120" y="328" fill="#fca5a5" font-size="16" opacity="1">  last successful run: 2026-03-21 (stalled)</text>
  <text x="120" y="356" fill="#fafafa" font-size="16">  reason: ACME challenge fails — port 80 blocked by new WAF rule</text>
  <text x="120" y="384" fill="#fafafa" font-size="16"></text>
  <text x="120" y="412" fill="#fafafa" font-size="16">Skill recommends:</text>
  <text x="120" y="440" fill="#86efac" font-size="16" opacity="1">  → add WAF allowlist for /.well-known/acme-challenge</text>
  <text x="120" y="468" fill="#86efac" font-size="16" opacity="1">  → re-run renewal job; verify cert chain</text>
  <text x="120" y="496" fill="#fafafa" font-size="16"></text>
  <text x="120" y="524" fill="#fb923c" font-size="16" opacity="1">next ▸ propose_patch(ops/waf/rules.yaml)</text></svg>